<svg xmlns="http://www.w3.org/2000/svg" height="40px" viewBox="0 -960 960 960" width="40px" fill="#000000"><path d="M480-480ZM202.57-140q-25.79 0-44.18-18.39T140-202.57v-554.86q0-25.79 18.39-44.18T202.57-820h322.04v50.26H202.57q-5.39 0-8.85 3.46t-3.46 8.85v554.86q0 5.39 3.46 8.85t8.85 3.46h554.86q5.39 0 8.85-3.46t3.46-8.85v-322.04H820v322.04q0 25.79-18.39 44.18T757.43-140H202.57Zm52.82-153.39h449.22l-136.64-182.1-123.38 159.16-86.9-109.98-102.3 132.92Zm430.97-309.17v-83.39h-83.8v-50.25h83.8V-820h50.25v83.8H820v50.25h-83.39v83.39h-50.25Z"/></svg>